<svg xmlns="http://www.w3.org/2000/svg" xmlns:xlink="http://www.w3.org/1999/xlink" width="2044pt" height="1848pt" viewBox="0.00 0.00 2044.00 1848.00">
<g id="graph0" class="graph" transform="scale(1 1) rotate(0) translate(4 1844.42)">
<title>TraductorJavaPython</title>
<polygon fill="white" stroke="none" points="-4,4 -4,-1844.42 2039.85,-1844.42 2039.85,4 -4,4"/>
<g id="clust1" class="cluster">
<title>cluster_leyenda</title>
<polygon fill="white" stroke="black" points="1420.85,-1755.62 1420.85,-1832.42 2027.85,-1832.42 2027.85,-1755.62 1420.85,-1755.62"/>
<text xml:space="preserve" text-anchor="middle" x="1724.35" y="-1815.82" font-family="Times,serif" font-size="14.00">LEYENDA</text>
</g>
<!-- inicio -->
<g id="node1" class="node">
<title>inicio</title>
<ellipse fill="lightgreen" stroke="black" cx="1274.85" cy="-1781.62" rx="136.22" ry="29.42"/>
<text xml:space="preserve" text-anchor="middle" x="1274.85" y="-1785.82" font-family="Arial" font-size="14.00">INICIO</text>
<text xml:space="preserve" text-anchor="middle" x="1274.85" y="-1769.02" font-family="Arial" font-size="14.00">Usuario ingresa código Java</text>
</g>
<!-- abrir -->
<g id="node2" class="node">
<title>abrir</title>
<polygon fill="lightyellow" stroke="black" points="1217.49,-1699.4 1076.22,-1699.4 1076.22,-1657.8 1217.49,-1657.8 1217.49,-1699.4"/>
<text xml:space="preserve" text-anchor="middle" x="1146.85" y="-1682.8" font-family="Arial" font-size="14.00">Botón ABRIR</text>
<text xml:space="preserve" text-anchor="middle" x="1146.85" y="-1666" font-family="Arial" font-size="14.00">Cargar archivo .java</text>
</g>
<!-- inicio&#45;&gt;abrir -->
<g id="edge1" class="edge">
<title>inicio-&gt;abrir</title>
<path fill="none" stroke="black" d="M1221.74,-1754.32C1211.66,-1748.32 1201.52,-1741.53 1192.7,-1734.2 1183.8,-1726.8 1175.28,-1717.52 1168.06,-1708.73"/>
<polygon fill="black" stroke="black" points="1170.92,-1706.7 1161.97,-1701.02 1165.42,-1711.03 1170.92,-1706.7"/>
<text xml:space="preserve" text-anchor="middle" x="1218.78" y="-1721.6" font-family="Arial" font-size="14.00">opcional</text>
</g>
<!-- traducir -->
<g id="node3" class="node">
<title>traducir</title>
<polygon fill="lightblue" stroke="black" points="1364.25,-1699.4 1235.45,-1699.4 1235.45,-1657.8 1364.25,-1657.8 1364.25,-1699.4"/>
<text xml:space="preserve" text-anchor="middle" x="1299.85" y="-1682.8" font-family="Arial" font-size="14.00">Botón TRADUCIR</text>
<text xml:space="preserve" text-anchor="middle" x="1299.85" y="-1666" font-family="Arial" font-size="14.00">Iniciar análisis</text>
</g>
<!-- inicio&#45;&gt;traducir -->
<g id="edge3" class="edge">
<title>inicio-&gt;traducir</title>
<path fill="none" stroke="black" d="M1281.95,-1751.94C1285.14,-1739.04 1288.92,-1723.78 1292.18,-1710.61"/>
<polygon fill="black" stroke="black" points="1295.51,-1711.71 1294.52,-1701.16 1288.72,-1710.03 1295.51,-1711.71"/>
</g>
<!-- guardar_java -->
<g id="node28" class="node">
<title>guardar_java</title>
<polygon fill="lightyellow" stroke="black" points="1724.54,-1699.4 1559.17,-1699.4 1559.17,-1657.8 1724.54,-1657.8 1724.54,-1699.4"/>
<text xml:space="preserve" text-anchor="middle" x="1641.85" y="-1682.8" font-family="Arial" font-size="14.00">Botón GUARDAR JAVA</text>
<text xml:space="preserve" text-anchor="middle" x="1641.85" y="-1666" font-family="Arial" font-size="14.00">Descargar código Java</text>
</g>
<!-- inicio&#45;&gt;guardar_java -->
<g id="edge41" class="edge">
<title>inicio-&gt;guardar_java</title>
<path fill="none" stroke="black" stroke-dasharray="5,2" d="M1357.67,-1757.82C1417.28,-1741.41 1497.42,-1719.36 1557.4,-1702.85"/>
<polygon fill="black" stroke="black" points="1558.18,-1706.26 1566.89,-1700.23 1556.32,-1699.51 1558.18,-1706.26"/>
<text xml:space="preserve" text-anchor="middle" x="1548.32" y="-1721.6" font-family="Arial" font-size="14.00">usuario solicita</text>
</g>
<!-- abrir&#45;&gt;inicio -->
<g id="edge2" class="edge">
<title>abrir-&gt;inicio</title>
<path fill="none" stroke="black" d="M1217.88,-1699.43C1227.67,-1704.23 1237.03,-1710.14 1244.85,-1717.4 1252.02,-1724.05 1257.65,-1732.77 1262,-1741.6"/>
<polygon fill="black" stroke="black" points="1258.69,-1742.77 1265.92,-1750.51 1265.09,-1739.95 1258.69,-1742.77"/>
</g>
<!-- lexer_inicio -->
<g id="node4" class="node">
<title>lexer_inicio</title>
<polygon fill="orange" stroke="black" points="1290.15,-1620.8 1181.56,-1620.8 1181.56,-1579.2 1290.15,-1579.2 1290.15,-1620.8"/>
<text xml:space="preserve" text-anchor="middle" x="1235.85" y="-1604.2" font-family="Arial" font-size="14.00">LEXER</text>
<text xml:space="preserve" text-anchor="middle" x="1235.85" y="-1587.4" font-family="Arial" font-size="14.00">Análisis Léxico</text>
</g>
<!-- traducir&#45;&gt;lexer_inicio -->
<g id="edge4" class="edge">
<title>traducir-&gt;lexer_inicio</title>
<path fill="none" stroke="black" d="M1283.04,-1657.47C1276.04,-1649.1 1267.78,-1639.21 1260.14,-1630.07"/>
<polygon fill="black" stroke="black" points="1262.85,-1627.85 1253.75,-1622.42 1257.48,-1632.34 1262.85,-1627.85"/>
</g>
<!-- lexer_afd -->
<g id="node5" class="node">
<title>lexer_afd</title>
<polygon fill="lightsalmon" stroke="black" points="1019.85,-1542.2 874.71,-1500.6 1019.85,-1459 1165,-1500.6 1019.85,-1542.2"/>
<text xml:space="preserve" text-anchor="middle" x="1019.85" y="-1504.8" font-family="Arial" font-size="14.00">AFD - Procesar</text>
<text xml:space="preserve" text-anchor="middle" x="1019.85" y="-1488" font-family="Arial" font-size="14.00">carácter por carácter</text>
</g>
<!-- lexer_inicio&#45;&gt;lexer_afd -->
<g id="edge5" class="edge">
<title>lexer_inicio-&gt;lexer_afd</title>
<path fill="none" stroke="black" d="M1190.84,-1578.7C1160.47,-1565.01 1119.9,-1546.71 1085.89,-1531.38"/>
<polygon fill="black" stroke="black" points="1087.5,-1528.27 1076.95,-1527.35 1084.63,-1534.65 1087.5,-1528.27"/>
</g>
<!-- lexer_token_valido -->
<g id="node6" class="node">
<title>lexer_token_valido</title>
<path fill="none" stroke="black" d="M1102.23,-1270.2C1102.23,-1270.2 937.48,-1270.2 937.48,-1270.2 931.48,-1270.2 925.48,-1264.2 925.48,-1258.2 925.48,-1258.2 925.48,-1240.6 925.48,-1240.6 925.48,-1234.6 931.48,-1228.6 937.48,-1228.6 937.48,-1228.6 1102.23,-1228.6 1102.23,-1228.6 1108.23,-1228.6 1114.23,-1234.6 1114.23,-1240.6 1114.23,-1240.6 1114.23,-1258.2 1114.23,-1258.2 1114.23,-1264.2 1108.23,-1270.2 1102.23,-1270.2"/>
<text xml:space="preserve" text-anchor="middle" x="1019.85" y="-1253.6" font-family="Arial" font-size="14.00">Generar Token Válido</text>
<text xml:space="preserve" text-anchor="middle" x="1019.85" y="-1236.8" font-family="Arial" font-size="14.00">(tipo, valor, línea, columna)</text>
</g>
<!-- lexer_afd&#45;&gt;lexer_token_valido -->
<g id="edge10" class="edge">
<title>lexer_afd-&gt;lexer_token_valido</title>
<path fill="none" stroke="black" d="M1019.85,-1458.73C1019.85,-1409.15 1019.85,-1326.64 1019.85,-1281.78"/>
<polygon fill="black" stroke="black" points="1023.35,-1281.96 1019.85,-1271.96 1016.35,-1281.96 1023.35,-1281.96"/>
<text xml:space="preserve" text-anchor="middle" x="1076.27" y="-1360.4" font-family="Arial" font-size="14.00">operador/símbolo</text>
</g>
<!-- lexer_token_invalido -->
<g id="node7" class="node">
<title>lexer_token_invalido</title>
<polygon fill="lightcoral" stroke="black" points="1595.21,-1385.4 1448.5,-1385.4 1448.5,-1343.8 1595.21,-1343.8 1595.21,-1385.4"/>
<text xml:space="preserve" text-anchor="middle" x="1521.85" y="-1368.8" font-family="Arial" font-size="14.00">Generar Error Léxico</text>
<text xml:space="preserve" text-anchor="middle" x="1521.85" y="-1352" font-family="Arial" font-size="14.00">(carácter inválido)</text>
</g>
<!-- lexer_afd&#45;&gt;lexer_token_invalido -->
<g id="edge11" class="edge">
<title>lexer_afd-&gt;lexer_token_invalido</title>
<path fill="none" stroke="black" d="M1132.74,-1490.88C1236.72,-1481.56 1382.54,-1464.82 1434.85,-1441 1458.71,-1430.14 1480.96,-1410.62 1496.98,-1394.16"/>
<polygon fill="black" stroke="black" points="1499.42,-1396.68 1503.73,-1387 1494.32,-1391.88 1499.42,-1396.68"/>
<text xml:space="preserve" text-anchor="middle" x="1485.52" y="-1428.4" font-family="Arial" font-size="14.00">inválido</text>
</g>
<!-- lexer_comentario -->
<g id="node8" class="node">
<title>lexer_comentario</title>
<path fill="none" stroke="black" d="M488.21,-1403.31C488.21,-1403.31 343.76,-1367.49 343.76,-1367.49 337.94,-1366.04 337.94,-1363.16 343.76,-1361.71 343.76,-1361.71 488.21,-1325.89 488.21,-1325.89 494.03,-1324.44 505.68,-1324.44 511.5,-1325.89 511.5,-1325.89 655.94,-1361.71 655.94,-1361.71 661.77,-1363.16 661.77,-1366.04 655.94,-1367.49 655.94,-1367.49 511.5,-1403.31 511.5,-1403.31 505.68,-1404.76 494.03,-1404.76 488.21,-1403.31"/>
<text xml:space="preserve" text-anchor="middle" x="499.85" y="-1368.8" font-family="Arial" font-size="14.00">¿Es comentario //?</text>
<text xml:space="preserve" text-anchor="middle" x="499.85" y="-1352" font-family="Arial" font-size="14.00">Omitir hasta fin de línea</text>
</g>
<!-- lexer_afd&#45;&gt;lexer_comentario -->
<g id="edge6" class="edge">
<title>lexer_afd-&gt;lexer_comentario</title>
<path fill="none" stroke="black" d="M916.52,-1488.13C848.09,-1479.01 756.85,-1463.92 678.51,-1441 640,-1429.73 598.63,-1412.62 565.41,-1397.54"/>
<polygon fill="black" stroke="black" points="567.3,-1394.55 556.75,-1393.56 564.38,-1400.91 567.3,-1394.55"/>
<text xml:space="preserve" text-anchor="middle" x="707.68" y="-1428.4" font-family="Arial" font-size="14.00">carácter /</text>
</g>
<!-- lexer_string -->
<g id="node9" class="node">
<title>lexer_string</title>
<path fill="none" stroke="black" d="M823.3,-1402.97C823.3,-1402.97 697.36,-1367.83 697.36,-1367.83 691.58,-1366.21 691.58,-1362.99 697.36,-1361.37 697.36,-1361.37 823.3,-1326.23 823.3,-1326.23 829.08,-1324.61 840.63,-1324.61 846.41,-1326.23 846.41,-1326.23 972.35,-1361.37 972.35,-1361.37 978.13,-1362.99 978.13,-1366.21 972.35,-1367.83 972.35,-1367.83 846.41,-1402.97 846.41,-1402.97 840.63,-1404.59 829.08,-1404.59 823.3,-1402.97"/>
<text xml:space="preserve" text-anchor="middle" x="834.85" y="-1368.8" font-family="Arial" font-size="14.00">¿Es cadena "..."?</text>
<text xml:space="preserve" text-anchor="middle" x="834.85" y="-1352" font-family="Arial" font-size="14.00">Procesar hasta cierre</text>
</g>
<!-- lexer_afd&#45;&gt;lexer_string -->
<g id="edge7" class="edge">
<title>lexer_afd-&gt;lexer_string</title>
<path fill="none" stroke="black" d="M979.26,-1470.19C951.52,-1450.1 914.58,-1423.34 885,-1401.92"/>
<polygon fill="black" stroke="black" points="887.06,-1399.09 876.9,-1396.06 882.95,-1404.76 887.06,-1399.09"/>
<text xml:space="preserve" text-anchor="middle" x="968.14" y="-1428.4" font-family="Arial" font-size="14.00">carácter "</text>
</g>
<!-- lexer_numero -->
<g id="node10" class="node">
<title>lexer_numero</title>
<path fill="none" stroke="black" d="M1260.51,-1402.3C1260.51,-1402.3 1162.16,-1368.5 1162.16,-1368.5 1156.48,-1366.55 1156.48,-1362.65 1162.16,-1360.7 1162.16,-1360.7 1260.51,-1326.9 1260.51,-1326.9 1266.18,-1324.95 1277.53,-1324.95 1283.2,-1326.9 1283.2,-1326.9 1381.55,-1360.7 1381.55,-1360.7 1387.23,-1362.65 1387.23,-1366.55 1381.55,-1368.5 1381.55,-1368.5 1283.2,-1402.3 1283.2,-1402.3 1277.53,-1404.25 1266.18,-1404.25 1260.51,-1402.3"/>
<text xml:space="preserve" text-anchor="middle" x="1271.85" y="-1368.8" font-family="Arial" font-size="14.00">¿Es número?</text>
<text xml:space="preserve" text-anchor="middle" x="1271.85" y="-1352" font-family="Arial" font-size="14.00">Procesar dígitos</text>
</g>
<!-- lexer_afd&#45;&gt;lexer_numero -->
<g id="edge8" class="edge">
<title>lexer_afd-&gt;lexer_numero</title>
<path fill="none" stroke="black" d="M1069.94,-1472.97C1111.8,-1450.71 1171.48,-1418.97 1215.1,-1395.78"/>
<polygon fill="black" stroke="black" points="1216.74,-1398.87 1223.93,-1391.09 1213.45,-1392.69 1216.74,-1398.87"/>
<text xml:space="preserve" text-anchor="middle" x="1180.01" y="-1428.4" font-family="Arial" font-size="14.00">dígito</text>
</g>
<!-- lexer_palabra -->
<g id="node11" class="node">
<title>lexer_palabra</title>
<path fill="none" stroke="black" d="M145.26,-1403.12C145.26,-1403.12 11.6,-1367.68 11.6,-1367.68 5.8,-1366.14 5.8,-1363.06 11.6,-1361.52 11.6,-1361.52 145.26,-1326.08 145.26,-1326.08 151.05,-1324.54 162.65,-1324.54 168.45,-1326.08 168.45,-1326.08 302.11,-1361.52 302.11,-1361.52 307.91,-1363.06 307.91,-1366.14 302.11,-1367.68 302.11,-1367.68 168.45,-1403.12 168.45,-1403.12 162.65,-1404.66 151.05,-1404.66 145.26,-1403.12"/>
<text xml:space="preserve" text-anchor="middle" x="156.85" y="-1368.8" font-family="Arial" font-size="14.00">¿Es palabra reservada</text>
<text xml:space="preserve" text-anchor="middle" x="156.85" y="-1352" font-family="Arial" font-size="14.00">o identificador?</text>
</g>
<!-- lexer_afd&#45;&gt;lexer_palabra -->
<g id="edge9" class="edge">
<title>lexer_afd-&gt;lexer_palabra</title>
<path fill="none" stroke="black" d="M913.9,-1488.96C776.81,-1474.38 530.85,-1445.46 322.85,-1406.2 297.33,-1401.38 269.85,-1395.11 244.74,-1388.95"/>
<polygon fill="black" stroke="black" points="245.78,-1385.6 235.23,-1386.59 244.09,-1392.39 245.78,-1385.6"/>
<text xml:space="preserve" text-anchor="middle" x="526.9" y="-1428.4" font-family="Arial" font-size="14.00">letra</text>
</g>
<!-- tokens_lista -->
<g id="node12" class="node">
<title>tokens_lista</title>
<path fill="lightgray" stroke="black" d="M1415.51,-1186.4C1415.51,-1189.27 1384.29,-1191.6 1345.85,-1191.6 1307.42,-1191.6 1276.19,-1189.27 1276.19,-1186.4 1276.19,-1186.4 1276.19,-1139.6 1276.19,-1139.6 1276.19,-1136.73 1307.42,-1134.4 1345.85,-1134.4 1384.29,-1134.4 1415.51,-1136.73 1415.51,-1139.6 1415.51,-1139.6 1415.51,-1186.4 1415.51,-1186.4"/>
<path fill="none" stroke="black" d="M1415.51,-1186.4C1415.51,-1183.53 1384.29,-1181.2 1345.85,-1181.2 1307.42,-1181.2 1276.19,-1183.53 1276.19,-1186.4"/>
<text xml:space="preserve" text-anchor="middle" x="1345.85" y="-1167.2" font-family="Arial" font-size="14.00">Lista de Tokens</text>
<text xml:space="preserve" text-anchor="middle" x="1345.85" y="-1150.4" font-family="Arial" font-size="14.00">(válidos + inválidos)</text>
</g>
<!-- lexer_afd&#45;&gt;tokens_lista -->
<g id="edge18" class="edge">
<title>lexer_afd-&gt;tokens_lista</title>
<path fill="none" stroke="black" d="M1124.14,-1488.48C1225.14,-1475.31 1367.87,-1449.5 1401.85,-1406.2 1449.17,-1345.92 1403.91,-1252.75 1371.73,-1201.31"/>
<polygon fill="black" stroke="black" points="1374.86,-1199.7 1366.52,-1193.18 1368.97,-1203.48 1374.86,-1199.7"/>
<text xml:space="preserve" text-anchor="middle" x="1447.23" y="-1292.4" font-family="Arial" font-size="14.00">fin código</text>
</g>
<!-- lexer_token_valido&#45;&gt;tokens_lista -->
<g id="edge16" class="edge">
<title>lexer_token_valido-&gt;tokens_lista</title>
<path fill="none" stroke="black" d="M1097.94,-1228.18C1148.39,-1215.12 1213.91,-1198.16 1264.91,-1184.96"/>
<polygon fill="black" stroke="black" points="1265.63,-1188.39 1274.43,-1182.49 1263.87,-1181.61 1265.63,-1188.39"/>
</g>
<!-- lexer_token_invalido&#45;&gt;tokens_lista -->
<g id="edge17" class="edge">
<title>lexer_token_invalido-&gt;tokens_lista</title>
<path fill="none" stroke="black" d="M1515.18,-1343.46C1503.58,-1311.24 1476.85,-1247.86 1434.85,-1209.6 1429.42,-1204.65 1423.35,-1200.09 1417.01,-1195.93"/>
<polygon fill="black" stroke="black" points="1419.19,-1193.16 1408.84,-1190.91 1415.52,-1199.13 1419.19,-1193.16"/>
</g>
<!-- lexer_comentario&#45;&gt;lexer_afd -->
<g id="edge12" class="edge">
<title>lexer_comentario-&gt;lexer_afd</title>
<path fill="none" stroke="black" d="M583.58,-1385.91C628.98,-1397.03 686.05,-1411.15 736.85,-1424.2 803.69,-1441.36 879.19,-1461.52 935.38,-1476.67"/>
<polygon fill="black" stroke="black" points="934.33,-1480.01 944.9,-1479.24 936.15,-1473.25 934.33,-1480.01"/>
<text xml:space="preserve" text-anchor="middle" x="827.77" y="-1428.4" font-family="Arial" font-size="14.00">continuar</text>
</g>
<!-- lexer_string&#45;&gt;lexer_token_valido -->
<g id="edge13" class="edge">
<title>lexer_string-&gt;lexer_token_valido</title>
<path fill="none" stroke="black" d="M878.53,-1334.93C900.66,-1320.6 928.05,-1303.18 952.96,-1288.2 959.49,-1284.28 966.44,-1280.22 973.29,-1276.29"/>
<polygon fill="black" stroke="black" points="974.92,-1279.39 981.88,-1271.4 971.46,-1273.3 974.92,-1279.39"/>
<text xml:space="preserve" text-anchor="middle" x="979.41" y="-1292.4" font-family="Arial" font-size="14.00">STRING</text>
</g>
<!-- lexer_numero&#45;&gt;lexer_token_valido -->
<g id="edge14" class="edge">
<title>lexer_numero-&gt;lexer_token_valido</title>
<path fill="none" stroke="black" d="M1220.25,-1340.42C1177.95,-1321.42 1118.21,-1294.58 1074.98,-1275.16"/>
<polygon fill="black" stroke="black" points="1076.58,-1272.04 1066.02,-1271.14 1073.71,-1278.43 1076.58,-1272.04"/>
<text xml:space="preserve" text-anchor="middle" x="1168.63" y="-1292.4" font-family="Arial" font-size="14.00">NUMBER</text>
</g>
<!-- lexer_palabra&#45;&gt;lexer_token_valido -->
<g id="edge15" class="edge">
<title>lexer_palabra-&gt;lexer_token_valido</title>
<path fill="none" stroke="black" d="M232.84,-1342.71C260.95,-1335.6 293.18,-1328.15 322.85,-1323 530.68,-1286.93 776.7,-1266.42 913.85,-1256.94"/>
<polygon fill="black" stroke="black" points="913.91,-1260.44 923.65,-1256.26 913.43,-1253.46 913.91,-1260.44"/>
<text xml:space="preserve" text-anchor="middle" x="596.76" y="-1292.4" font-family="Arial" font-size="14.00">KEYWORD/ID</text>
</g>
<!-- parser_inicio -->
<g id="node13" class="node">
<title>parser_inicio</title>
<polygon fill="orange" stroke="black" points="1514.26,-1081.6 1385.45,-1081.6 1385.45,-1040 1514.26,-1040 1514.26,-1081.6"/>
<text xml:space="preserve" text-anchor="middle" x="1449.85" y="-1065" font-family="Arial" font-size="14.00">PARSER</text>
<text xml:space="preserve" text-anchor="middle" x="1449.85" y="-1048.2" font-family="Arial" font-size="14.00">Análisis Sintáctico</text>
</g>
<!-- tokens_lista&#45;&gt;parser_inicio -->
<g id="edge19" class="edge">
<title>tokens_lista-&gt;parser_inicio</title>
<path fill="none" stroke="black" d="M1382.89,-1134.02C1389.72,-1128.4 1396.65,-1122.38 1402.85,-1116.4 1411.07,-1108.47 1419.41,-1099.26 1426.73,-1090.68"/>
<polygon fill="black" stroke="black" points="1429.24,-1093.13 1432.97,-1083.21 1423.87,-1088.64 1429.24,-1093.13"/>
</g>
<!-- reporte_tokens -->
<g id="node24" class="node">
<title>reporte_tokens</title>
<polygon fill="lightcyan" stroke="black" points="1367.65,-1081.6 1182.05,-1081.6 1182.05,-1040 1367.65,-1040 1367.65,-1081.6"/>
<text xml:space="preserve" text-anchor="middle" x="1274.85" y="-1065" font-family="Arial" font-size="14.00">Botón REPORTE TOKENS</text>
<text xml:space="preserve" text-anchor="middle" x="1274.85" y="-1048.2" font-family="Arial" font-size="14.00">Generar HTML con tokens</text>
</g>
<!-- tokens_lista&#45;&gt;reporte_tokens -->
<g id="edge34" class="edge">
<title>tokens_lista-&gt;reporte_tokens</title>
<path fill="none" stroke="black" stroke-dasharray="5,2" d="M1323.62,-1134.32C1319.1,-1128.47 1314.45,-1122.29 1310.25,-1116.4 1304.62,-1108.49 1298.77,-1099.72 1293.49,-1091.58"/>
<polygon fill="black" stroke="black" points="1296.54,-1089.86 1288.2,-1083.32 1290.65,-1093.63 1296.54,-1089.86"/>
<text xml:space="preserve" text-anchor="middle" x="1356.55" y="-1103.8" font-family="Arial" font-size="14.00">usuario solicita</text>
</g>
<!-- reporte_lexicos -->
<g id="node25" class="node">
<title>reporte_lexicos</title>
<polygon fill="lightcyan" stroke="black" points="1164.44,-1081.6 977.27,-1081.6 977.27,-1040 1164.44,-1040 1164.44,-1081.6"/>
<text xml:space="preserve" text-anchor="middle" x="1070.85" y="-1065" font-family="Arial" font-size="14.00">Botón REPORTE LÉXICOS</text>
<text xml:space="preserve" text-anchor="middle" x="1070.85" y="-1048.2" font-family="Arial" font-size="14.00">Generar HTML con errores</text>
</g>
<!-- tokens_lista&#45;&gt;reporte_lexicos -->
<g id="edge35" class="edge">
<title>tokens_lista-&gt;reporte_lexicos</title>
<path fill="none" stroke="black" stroke-dasharray="5,2" d="M1276.06,-1141.17C1252.47,-1133.77 1226.08,-1125.12 1202.25,-1116.4 1177.31,-1107.28 1150.13,-1096.18 1127.01,-1086.39"/>
<polygon fill="black" stroke="black" points="1128.65,-1083.28 1118.08,-1082.58 1125.91,-1089.72 1128.65,-1083.28"/>
<text xml:space="preserve" text-anchor="middle" x="1248.55" y="-1103.8" font-family="Arial" font-size="14.00">usuario solicita</text>
</g>
<!-- parser_clase -->
<g id="node14" class="node">
<title>parser_clase</title>
<path fill="none" stroke="black" d="M1438.84,-998.24C1438.84,-998.24 1364.72,-966.16 1364.72,-966.16 1359.21,-963.78 1359.21,-959.02 1364.72,-956.64 1364.72,-956.64 1438.84,-924.56 1438.84,-924.56 1444.35,-922.18 1455.36,-922.18 1460.87,-924.56 1460.87,-924.56 1534.99,-956.64 1534.99,-956.64 1540.5,-959.02 1540.5,-963.78 1534.99,-966.16 1534.99,-966.16 1460.87,-998.24 1460.87,-998.24 1455.36,-1000.62 1444.35,-1000.62 1438.84,-998.24"/>
<text xml:space="preserve" text-anchor="middle" x="1449.85" y="-965.6" font-family="Arial" font-size="14.00">¿Inicia con</text>
<text xml:space="preserve" text-anchor="middle" x="1449.85" y="-948.8" font-family="Arial" font-size="14.00">public class?</text>
</g>
<!-- parser_inicio&#45;&gt;parser_clase -->
<g id="edge20" class="edge">
<title>parser_inicio-&gt;parser_clase</title>
<path fill="none" stroke="black" d="M1449.85,-1039.62C1449.85,-1032.25 1449.85,-1023.54 1449.85,-1014.68"/>
<polygon fill="black" stroke="black" points="1453.35,-1014.96 1449.85,-1004.96 1446.35,-1014.96 1453.35,-1014.96"/>
</g>
<!-- parser_con_clase -->
<g id="node15" class="node">
<title>parser_con_clase</title>
<path fill="none" stroke="black" d="M1445.04,-867C1445.04,-867 1338.67,-867 1338.67,-867 1332.67,-867 1326.67,-861 1326.67,-855 1326.67,-855 1326.67,-837.4 1326.67,-837.4 1326.67,-831.4 1332.67,-825.4 1338.67,-825.4 1338.67,-825.4 1445.04,-825.4 1445.04,-825.4 1451.04,-825.4 1457.04,-831.4 1457.04,-837.4 1457.04,-837.4 1457.04,-855 1457.04,-855 1457.04,-861 1451.04,-867 1445.04,-867"/>
<text xml:space="preserve" text-anchor="middle" x="1391.85" y="-850.4" font-family="Arial" font-size="14.00">Validar estructura:</text>
<text xml:space="preserve" text-anchor="middle" x="1391.85" y="-833.6" font-family="Arial" font-size="14.00">class → main → { }</text>
</g>
<!-- parser_clase&#45;&gt;parser_con_clase -->
<g id="edge21" class="edge">
<title>parser_clase-&gt;parser_con_clase</title>
<path fill="none" stroke="black" d="M1432.61,-926.74C1424.58,-911.07 1415.1,-892.57 1407.31,-877.36"/>
<polygon fill="black" stroke="black" points="1410.58,-876.08 1402.91,-868.77 1404.35,-879.27 1410.58,-876.08"/>
<text xml:space="preserve" text-anchor="middle" x="1426.51" y="-889.2" font-family="Arial" font-size="14.00">sí</text>
</g>
<!-- parser_sin_clase -->
<g id="node16" class="node">
<title>parser_sin_clase</title>
<path fill="none" stroke="black" d="M1606.27,-867C1606.27,-867 1487.43,-867 1487.43,-867 1481.43,-867 1475.43,-861 1475.43,-855 1475.43,-855 1475.43,-837.4 1475.43,-837.4 1475.43,-831.4 1481.43,-825.4 1487.43,-825.4 1487.43,-825.4 1606.27,-825.4 1606.27,-825.4 1612.27,-825.4 1618.27,-831.4 1618.27,-837.4 1618.27,-837.4 1618.27,-855 1618.27,-855 1618.27,-861 1612.27,-867 1606.27,-867"/>
<text xml:space="preserve" text-anchor="middle" x="1546.85" y="-850.4" font-family="Arial" font-size="14.00">Procesar sentencias</text>
<text xml:space="preserve" text-anchor="middle" x="1546.85" y="-833.6" font-family="Arial" font-size="14.00">directamente</text>
</g>
<!-- parser_clase&#45;&gt;parser_sin_clase -->
<g id="edge22" class="edge">
<title>parser_clase-&gt;parser_sin_clase</title>
<path fill="none" stroke="black" d="M1475.34,-930.66C1489.87,-913.7 1507.99,-892.55 1522.35,-875.79"/>
<polygon fill="black" stroke="black" points="1524.65,-878.49 1528.5,-868.62 1519.34,-873.94 1524.65,-878.49"/>
<text xml:space="preserve" text-anchor="middle" x="1520.5" y="-889.2" font-family="Arial" font-size="14.00">no</text>
</g>
<!-- parser_sentencias -->
<g id="node17" class="node">
<title>parser_sentencias</title>
<path fill="none" stroke="black" d="M1524.39,-788.4C1524.39,-788.4 1399.32,-788.4 1399.32,-788.4 1393.32,-788.4 1387.32,-782.4 1387.32,-776.4 1387.32,-776.4 1387.32,-691.6 1387.32,-691.6 1387.32,-685.6 1393.32,-679.6 1399.32,-679.6 1399.32,-679.6 1524.39,-679.6 1524.39,-679.6 1530.39,-679.6 1536.39,-685.6 1536.39,-691.6 1536.39,-691.6 1536.39,-776.4 1536.39,-776.4 1536.39,-782.4 1530.39,-788.4 1524.39,-788.4"/>
<text xml:space="preserve" text-anchor="middle" x="1461.85" y="-771.8" font-family="Arial" font-size="14.00">Procesar Sentencias:</text>
<text xml:space="preserve" text-anchor="middle" x="1461.85" y="-755" font-family="Arial" font-size="14.00">- Declaraciones</text>
<text xml:space="preserve" text-anchor="middle" x="1461.85" y="-738.2" font-family="Arial" font-size="14.00">- If/Else</text>
<text xml:space="preserve" text-anchor="middle" x="1461.85" y="-721.4" font-family="Arial" font-size="14.00">- For/While</text>
<text xml:space="preserve" text-anchor="middle" x="1461.85" y="-704.6" font-family="Arial" font-size="14.00">- Asignaciones</text>
<text xml:space="preserve" text-anchor="middle" x="1461.85" y="-687.8" font-family="Arial" font-size="14.00">- Print</text>
</g>
<!-- parser_con_clase&#45;&gt;parser_sentencias -->
<g id="edge23" class="edge">
<title>parser_con_clase-&gt;parser_sentencias</title>
<path fill="none" stroke="black" d="M1404.69,-824.99C1409.61,-817.25 1415.51,-807.96 1421.63,-798.32"/>
<polygon fill="black" stroke="black" points="1424.58,-800.21 1426.99,-789.89 1418.67,-796.45 1424.58,-800.21"/>
</g>
<!-- parser_sin_clase&#45;&gt;parser_sentencias -->
<g id="edge24" class="edge">
<title>parser_sin_clase-&gt;parser_sentencias</title>
<path fill="none" stroke="black" d="M1531.26,-824.99C1525.17,-817.09 1517.83,-807.57 1510.23,-797.72"/>
<polygon fill="black" stroke="black" points="1513.01,-795.59 1504.13,-789.81 1507.47,-799.87 1513.01,-795.59"/>
</g>
<!-- parser_error -->
<g id="node18" class="node">
<title>parser_error</title>
<path fill="none" stroke="black" d="M1450.88,-637.74C1450.88,-637.74 1340.86,-589.06 1340.86,-589.06 1335.38,-586.63 1335.38,-581.77 1340.86,-579.34 1340.86,-579.34 1450.88,-530.66 1450.88,-530.66 1456.37,-528.23 1467.34,-528.23 1472.83,-530.66 1472.83,-530.66 1582.85,-579.34 1582.85,-579.34 1588.33,-581.77 1588.33,-586.63 1582.85,-589.06 1582.85,-589.06 1472.83,-637.74 1472.83,-637.74 1467.34,-640.17 1456.37,-640.17 1450.88,-637.74"/>
<text xml:space="preserve" text-anchor="middle" x="1461.85" y="-596.8" font-family="Arial" font-size="14.00">¿Error sintáctico?</text>
<text xml:space="preserve" text-anchor="middle" x="1461.85" y="-580" font-family="Arial" font-size="14.00">(token inesperado,</text>
<text xml:space="preserve" text-anchor="middle" x="1461.85" y="-563.2" font-family="Arial" font-size="14.00">falta ;, etc.)</text>
</g>
<!-- parser_sentencias&#45;&gt;parser_error -->
<g id="edge25" class="edge">
<title>parser_sentencias-&gt;parser_error</title>
<path fill="none" stroke="black" d="M1461.85,-679.22C1461.85,-671.11 1461.85,-662.64 1461.85,-654.26"/>
<polygon fill="black" stroke="black" points="1465.35,-654.44 1461.85,-644.44 1458.35,-654.44 1465.35,-654.44"/>
</g>
<!-- error_sintactico -->
<g id="node19" class="node">
<title>error_sintactico</title>
<polygon fill="lightcoral" stroke="black" points="1421.28,-456.2 1222.43,-456.2 1222.43,-414.6 1421.28,-414.6 1421.28,-456.2"/>
<text xml:space="preserve" text-anchor="middle" x="1321.85" y="-439.6" font-family="Arial" font-size="14.00">Generar Error Sintáctico</text>
<text xml:space="preserve" text-anchor="middle" x="1321.85" y="-422.8" font-family="Arial" font-size="14.00">(descripción, línea, columna)</text>
</g>
<!-- parser_error&#45;&gt;error_sintactico -->
<g id="edge26" class="edge">
<title>parser_error-&gt;error_sintactico</title>
<path fill="none" stroke="black" d="M1423.23,-542.7C1399.65,-517.97 1370.08,-486.97 1348.98,-464.84"/>
<polygon fill="black" stroke="black" points="1351.53,-462.45 1342.1,-457.62 1346.46,-467.28 1351.53,-462.45"/>
<text xml:space="preserve" text-anchor="middle" x="1395.05" y="-495.2" font-family="Arial" font-size="14.00">sí</text>
</g>
<!-- traduccion -->
<g id="node20" class="node">
<title>traduccion</title>
<polygon fill="lightgreen" stroke="black" points="1606.34,-473 1439.37,-473 1439.37,-397.8 1606.34,-397.8 1606.34,-473"/>
<text xml:space="preserve" text-anchor="middle" x="1522.85" y="-456.4" font-family="Arial" font-size="14.00">Generar Código Python:</text>
<text xml:space="preserve" text-anchor="middle" x="1522.85" y="-439.6" font-family="Arial" font-size="14.00">- Eliminar tipos</text>
<text xml:space="preserve" text-anchor="middle" x="1522.85" y="-422.8" font-family="Arial" font-size="14.00">- Convertir sintaxis</text>
<text xml:space="preserve" text-anchor="middle" x="1522.85" y="-406" font-family="Arial" font-size="14.00">- Ajustar indentación</text>
</g>
<!-- parser_error&#45;&gt;traduccion -->
<g id="edge27" class="edge">
<title>parser_error-&gt;traduccion</title>
<path fill="none" stroke="black" d="M1482.17,-534.32C1488.93,-518.03 1496.46,-499.93 1503.17,-483.76"/>
<polygon fill="black" stroke="black" points="1506.27,-485.43 1506.87,-474.86 1499.81,-482.75 1506.27,-485.43"/>
<text xml:space="preserve" text-anchor="middle" x="1507.4" y="-495.2" font-family="Arial" font-size="14.00">no</text>
</g>
<!-- verificar_errores -->
<g id="node21" class="node">
<title>verificar_errores</title>
<polygon fill="yellow" stroke="black" points="1522.85,-345 1375.37,-303.4 1522.85,-261.8 1670.34,-303.4 1522.85,-345"/>
<text xml:space="preserve" text-anchor="middle" x="1522.85" y="-307.6" font-family="Arial" font-size="14.00">¿Hay errores</text>
<text xml:space="preserve" text-anchor="middle" x="1522.85" y="-290.8" font-family="Arial" font-size="14.00">léxicos o sintácticos?</text>
</g>
<!-- error_sintactico&#45;&gt;verificar_errores -->
<g id="edge28" class="edge">
<title>error_sintactico-&gt;verificar_errores</title>
<path fill="none" stroke="black" d="M1352.82,-414.37C1383.88,-394.28 1432.33,-362.95 1469.58,-338.85"/>
<polygon fill="black" stroke="black" points="1471.03,-342.09 1477.52,-333.72 1467.22,-336.21 1471.03,-342.09"/>
</g>
<!-- reporte_sintacticos -->
<g id="node26" class="node">
<title>reporte_sintacticos</title>
<polygon fill="lightcyan" stroke="black" points="1357.15,-324.2 1136.56,-324.2 1136.56,-282.6 1357.15,-282.6 1357.15,-324.2"/>
<text xml:space="preserve" text-anchor="middle" x="1246.85" y="-307.6" font-family="Arial" font-size="14.00">Botón REPORTE SINTÁCTICOS</text>
<text xml:space="preserve" text-anchor="middle" x="1246.85" y="-290.8" font-family="Arial" font-size="14.00">Generar HTML con errores</text>
</g>
<!-- error_sintactico&#45;&gt;reporte_sintacticos -->
<g id="edge36" class="edge">
<title>error_sintactico-&gt;reporte_sintacticos</title>
<path fill="none" stroke="black" stroke-dasharray="5,2" d="M1310.3,-414.37C1298,-393.06 1278.41,-359.09 1264.25,-334.54"/>
<polygon fill="black" stroke="black" points="1267.33,-332.89 1259.3,-325.98 1261.27,-336.39 1267.33,-332.89"/>
<text xml:space="preserve" text-anchor="middle" x="1335.14" y="-367.2" font-family="Arial" font-size="14.00">usuario solicita</text>
</g>
<!-- traduccion&#45;&gt;verificar_errores -->
<g id="edge29" class="edge">
<title>traduccion-&gt;verificar_errores</title>
<path fill="none" stroke="black" d="M1522.85,-397.49C1522.85,-384.83 1522.85,-370.4 1522.85,-356.74"/>
<polygon fill="black" stroke="black" points="1526.35,-357.02 1522.85,-347.02 1519.35,-357.02 1526.35,-357.02"/>
</g>
<!-- mostrar_errores -->
<g id="node22" class="node">
<title>mostrar_errores</title>
<polygon fill="red" stroke="black" points="1465.44,-209 1292.27,-209 1292.27,-167.4 1465.44,-167.4 1465.44,-209"/>
<text xml:space="preserve" text-anchor="middle" x="1378.85" y="-192.4" font-family="Arial" font-size="14.00">Mostrar mensaje de error</text>
<text xml:space="preserve" text-anchor="middle" x="1378.85" y="-175.6" font-family="Arial" font-size="14.00">No generar traducción</text>
</g>
<!-- verificar_errores&#45;&gt;mostrar_errores -->
<g id="edge30" class="edge">
<title>verificar_errores-&gt;mostrar_errores</title>
<path fill="none" stroke="black" d="M1484.64,-272.36C1462.48,-254.94 1434.79,-233.17 1413.3,-216.28"/>
<polygon fill="black" stroke="black" points="1415.72,-213.73 1405.7,-210.3 1411.39,-219.23 1415.72,-213.73"/>
<text xml:space="preserve" text-anchor="middle" x="1453.93" y="-231.2" font-family="Arial" font-size="14.00">sí</text>
</g>
<!-- mostrar_traduccion -->
<g id="node23" class="node">
<title>mostrar_traduccion</title>
<polygon fill="lightgreen" stroke="black" points="1639.89,-209 1483.82,-209 1483.82,-167.4 1639.89,-167.4 1639.89,-209"/>
<text xml:space="preserve" text-anchor="middle" x="1561.85" y="-192.4" font-family="Arial" font-size="14.00">Mostrar código Python</text>
<text xml:space="preserve" text-anchor="middle" x="1561.85" y="-175.6" font-family="Arial" font-size="14.00">en área de salida</text>
</g>
<!-- verificar_errores&#45;&gt;mostrar_traduccion -->
<g id="edge31" class="edge">
<title>verificar_errores-&gt;mostrar_traduccion</title>
<path fill="none" stroke="black" d="M1535.73,-265.02C1540.77,-250.39 1546.49,-233.81 1551.28,-219.89"/>
<polygon fill="black" stroke="black" points="1554.46,-221.41 1554.41,-210.82 1547.84,-219.13 1554.46,-221.41"/>
<text xml:space="preserve" text-anchor="middle" x="1555.91" y="-231.2" font-family="Arial" font-size="14.00">no</text>
</g>
<!-- fin -->
<g id="node30" class="node">
<title>fin</title>
<ellipse fill="lightgreen" stroke="black" cx="1439.85" cy="-18" rx="27" ry="18"/>
<text xml:space="preserve" text-anchor="middle" x="1439.85" y="-13.8" font-family="Arial" font-size="14.00">FIN</text>
</g>
<!-- mostrar_errores&#45;&gt;fin -->
<g id="edge32" class="edge">
<title>mostrar_errores-&gt;fin</title>
<path fill="none" stroke="black" d="M1385.61,-167.25C1394.52,-141.12 1410.83,-93.94 1425.85,-54 1426.81,-51.47 1427.82,-48.84 1428.84,-46.21"/>
<polygon fill="black" stroke="black" points="1432.03,-47.67 1432.46,-37.09 1425.52,-45.09 1432.03,-47.67"/>
</g>
<!-- guardar_python -->
<g id="node29" class="node">
<title>guardar_python</title>
<polygon fill="lightyellow" stroke="black" points="1656.21,-114.6 1467.5,-114.6 1467.5,-73 1656.21,-73 1656.21,-114.6"/>
<text xml:space="preserve" text-anchor="middle" x="1561.85" y="-98" font-family="Arial" font-size="14.00">Botón GUARDAR PYTHON</text>
<text xml:space="preserve" text-anchor="middle" x="1561.85" y="-81.2" font-family="Arial" font-size="14.00">Descargar código Python</text>
</g>
<!-- mostrar_traduccion&#45;&gt;guardar_python -->
<g id="edge42" class="edge">
<title>mostrar_traduccion-&gt;guardar_python</title>
<path fill="none" stroke="black" stroke-dasharray="5,2" d="M1561.85,-167.15C1561.85,-155.16 1561.85,-139.67 1561.85,-126.1"/>
<polygon fill="black" stroke="black" points="1565.35,-126.32 1561.85,-116.32 1558.35,-126.32 1565.35,-126.32"/>
<text xml:space="preserve" text-anchor="middle" x="1608.15" y="-136.8" font-family="Arial" font-size="14.00">usuario solicita</text>
</g>
<!-- mostrar_traduccion&#45;&gt;fin -->
<g id="edge33" class="edge">
<title>mostrar_traduccion-&gt;fin</title>
<path fill="none" stroke="black" d="M1519.22,-167.04C1497.87,-154.8 1473.52,-137.16 1458.85,-114.6 1445.88,-94.65 1441.43,-67.77 1440.05,-47.6"/>
<polygon fill="black" stroke="black" points="1443.56,-47.66 1439.61,-37.82 1436.56,-47.97 1443.56,-47.66"/>
</g>
<!-- descargar_reporte -->
<g id="node27" class="node">
<title>descargar_reporte</title>
<polygon fill="lightyellow" stroke="black" points="1254.65,-209 1083.05,-209 1083.05,-167.4 1254.65,-167.4 1254.65,-209"/>
<text xml:space="preserve" text-anchor="middle" x="1168.85" y="-192.4" font-family="Arial" font-size="14.00">Descargar archivo HTML</text>
<text xml:space="preserve" text-anchor="middle" x="1168.85" y="-175.6" font-family="Arial" font-size="14.00">al sistema</text>
</g>
<!-- reporte_tokens&#45;&gt;descargar_reporte -->
<g id="edge37" class="edge">
<title>reporte_tokens-&gt;descargar_reporte</title>
<path fill="none" stroke="black" d="M1181.66,-1039.6C1143.83,-1025.4 1108.85,-1001.66 1108.85,-962.4 1108.85,-962.4 1108.85,-962.4 1108.85,-302.4 1108.85,-271.01 1127.09,-239.83 1143.45,-218.17"/>
<polygon fill="black" stroke="black" points="1146.14,-220.41 1149.59,-210.39 1140.64,-216.07 1146.14,-220.41"/>
</g>
<!-- reporte_lexicos&#45;&gt;descargar_reporte -->
<g id="edge38" class="edge">
<title>reporte_lexicos-&gt;descargar_reporte</title>
<path fill="none" stroke="black" d="M1070.85,-1039.65C1070.85,-1019.96 1070.85,-989.12 1070.85,-962.4 1070.85,-962.4 1070.85,-962.4 1070.85,-302.4 1070.85,-267.23 1072.11,-253.82 1094.85,-227 1098.34,-222.88 1102.39,-219.16 1106.77,-215.81"/>
<polygon fill="black" stroke="black" points="1108.57,-218.82 1114.87,-210.29 1104.63,-213.03 1108.57,-218.82"/>
</g>
<!-- reporte_sintacticos&#45;&gt;descargar_reporte -->
<g id="edge39" class="edge">
<title>reporte_sintacticos-&gt;descargar_reporte</title>
<path fill="none" stroke="black" d="M1232.91,-282.16C1220.71,-264.46 1202.83,-238.51 1189.07,-218.53"/>
<polygon fill="black" stroke="black" points="1192.09,-216.76 1183.54,-210.51 1186.33,-220.73 1192.09,-216.76"/>
</g>
<!-- descargar_reporte&#45;&gt;fin -->
<g id="edge40" class="edge">
<title>descargar_reporte-&gt;fin</title>
<path fill="none" stroke="black" d="M1201.54,-166.91C1254.88,-133.81 1359.79,-68.69 1410.73,-37.08"/>
<polygon fill="black" stroke="black" points="1412.51,-40.09 1419.16,-31.84 1408.82,-34.14 1412.51,-40.09"/>
</g>
<!-- guardar_java&#45;&gt;fin -->
<g id="edge43" class="edge">
<title>guardar_java-&gt;fin</title>
<path fill="none" stroke="black" d="M1667.56,-1657.34C1682.28,-1643.32 1697.85,-1623.24 1697.85,-1601 1697.85,-1601 1697.85,-1601 1697.85,-92.8 1697.85,-47.68 1550.12,-28.58 1478.24,-21.97"/>
<polygon fill="black" stroke="black" points="1478.75,-18.5 1468.49,-21.11 1478.14,-25.47 1478.75,-18.5"/>
</g>
<!-- guardar_python&#45;&gt;fin -->
<g id="edge44" class="edge">
<title>guardar_python-&gt;fin</title>
<path fill="none" stroke="black" d="M1528.52,-72.63C1509.91,-61.38 1486.95,-47.49 1469.06,-36.67"/>
<polygon fill="black" stroke="black" points="1471.1,-33.81 1460.73,-31.63 1467.48,-39.8 1471.1,-33.81"/>
</g>
<!-- leg1 -->
<g id="node31" class="node">
<title>leg1</title>
<polygon fill="lightblue" stroke="black" points="1552.55,-1799.62 1429.16,-1799.62 1429.16,-1763.62 1552.55,-1763.62 1552.55,-1799.62"/>
<text xml:space="preserve" text-anchor="middle" x="1490.85" y="-1777.42" font-family="Arial" font-size="14.00">Proceso principal</text>
</g>
<!-- leg2 -->
<g id="node32" class="node">
<title>leg2</title>
<polygon fill="orange" stroke="black" points="1727.65,-1799.62 1570.06,-1799.62 1570.06,-1763.62 1727.65,-1763.62 1727.65,-1799.62"/>
<text xml:space="preserve" text-anchor="middle" x="1648.85" y="-1777.42" font-family="Arial" font-size="14.00">Análisis (Lexer/Parser)</text>
</g>
<!-- leg3 -->
<g id="node33" class="node">
<title>leg3</title>
<polygon fill="lightcoral" stroke="black" points="1799.85,-1799.62 1745.85,-1799.62 1745.85,-1763.62 1799.85,-1763.62 1799.85,-1799.62"/>
<text xml:space="preserve" text-anchor="middle" x="1772.85" y="-1777.42" font-family="Arial" font-size="14.00">Error</text>
</g>
<!-- leg4 -->
<g id="node34" class="node">
<title>leg4</title>
<polygon fill="lightgreen" stroke="black" points="1871.85,-1799.62 1817.85,-1799.62 1817.85,-1763.62 1871.85,-1763.62 1871.85,-1799.62"/>
<text xml:space="preserve" text-anchor="middle" x="1844.85" y="-1777.42" font-family="Arial" font-size="14.00">Éxito</text>
</g>
<!-- leg5 -->
<g id="node35" class="node">
<title>leg5</title>
<polygon fill="lightyellow" stroke="black" points="2020.04,-1799.62 1889.67,-1799.62 1889.67,-1763.62 2020.04,-1763.62 2020.04,-1799.62"/>
<text xml:space="preserve" text-anchor="middle" x="1954.85" y="-1777.42" font-family="Arial" font-size="14.00">Reportes/Archivos</text>
</g>
</g>
</svg>